<svg width="425" height="190" viewBox="0 0 425 190" fill="none" xmlns="http://www.w3.org/2000/svg">
<rect width="425" height="190" fill="#1A1A2C"/>
<path d="M47.4801 29.4545V44H44.4972L38.7088 35.6051H38.6165V44H35.1009V29.4545H38.1264L43.8509 37.8352H43.9716V29.4545H47.4801ZM49.6907 44V29.4545H59.8327V32.3097H53.2063V35.2926H59.3143V38.1548H53.2063V41.1449H59.8327V44H49.6907ZM61.31 29.4545H65.2376L68.3129 35.5412H68.4407L71.516 29.4545H75.4435L70.1239 39.142V44H66.6296V39.142L61.31 29.4545ZM76.9173 44V29.4545H87.0593V32.3097H80.4329V35.2926H86.5408V38.1548H80.4329V41.1449H87.0593V44H76.9173Z" fill="#8F8DEA"/>
<path d="M107.675 112.22C106.652 112.22 105.769 112.038 105.026 111.673C104.287 111.309 103.719 110.819 103.321 110.203C102.923 109.583 102.724 108.894 102.724 108.136C102.724 107.578 102.833 107.085 103.051 106.659C103.274 106.228 103.579 105.833 103.967 105.473C104.36 105.108 104.817 104.751 105.338 104.401L108.392 102.447C108.738 102.23 108.982 102 109.124 101.759C109.27 101.517 109.344 101.276 109.344 101.034C109.344 100.774 109.242 100.537 109.038 100.324C108.839 100.111 108.544 100.007 108.151 100.011C107.9 100.011 107.682 100.063 107.497 100.168C107.313 100.272 107.168 100.411 107.064 100.587C106.964 100.762 106.915 100.961 106.915 101.183C106.915 101.472 106.998 101.768 107.163 102.071C107.329 102.374 107.552 102.696 107.831 103.037C108.115 103.378 108.43 103.754 108.776 104.166L115.743 112H112.206L106.375 105.672C106.044 105.303 105.696 104.888 105.331 104.429C104.966 103.97 104.659 103.468 104.408 102.923C104.157 102.374 104.031 101.777 104.031 101.134C104.031 100.409 104.202 99.7533 104.543 99.1662C104.884 98.5791 105.362 98.1127 105.977 97.767C106.598 97.4167 107.32 97.2415 108.143 97.2415C108.939 97.2415 109.625 97.4048 110.203 97.7315C110.781 98.0582 111.226 98.4915 111.538 99.0312C111.851 99.571 112.007 100.163 112.007 100.807C112.007 101.489 111.839 102.116 111.503 102.689C111.167 103.257 110.691 103.761 110.075 104.202L107.085 106.339C106.768 106.567 106.519 106.811 106.339 107.071C106.16 107.327 106.07 107.606 106.07 107.909C106.07 108.222 106.143 108.494 106.29 108.726C106.441 108.958 106.654 109.14 106.929 109.273C107.204 109.405 107.526 109.472 107.895 109.472C108.387 109.472 108.88 109.356 109.372 109.124C109.865 108.887 110.314 108.555 110.722 108.129C111.129 107.698 111.455 107.189 111.702 106.602C111.948 106.01 112.071 105.362 112.071 104.656H114.869C114.869 105.527 114.777 106.337 114.592 107.085C114.408 107.829 114.131 108.496 113.761 109.088C113.397 109.675 112.945 110.163 112.405 110.551C112.234 110.646 112.069 110.736 111.908 110.821C111.747 110.906 111.581 110.996 111.411 111.091C110.852 111.493 110.246 111.782 109.592 111.957C108.944 112.133 108.304 112.22 107.675 112.22Z" fill="white"/>
<g clip-path="url(#clip0_3_114)">
<path d="M399 80.4915V114.519C398.999 115.442 398.633 116.327 397.982 116.979C397.332 117.632 396.45 117.999 395.529 118H369.505L369.747 117.693L398.694 80.8811L399 80.4915Z" fill="#F2F2F2"/>
<path d="M334.423 68.5053H304.54C304.295 68.5053 304.06 68.6029 303.887 68.7765C303.714 68.9502 303.616 69.1857 303.616 69.4313C303.616 69.6769 303.714 69.9124 303.887 70.086C304.06 70.2597 304.295 70.3573 304.54 70.3573H334.423C334.668 70.3573 334.903 70.2597 335.076 70.086C335.249 69.9124 335.346 69.6769 335.346 69.4313C335.346 69.1857 335.249 68.9502 335.076 68.7765C334.903 68.6029 334.668 68.5053 334.423 68.5053Z" fill="#E6E6E6"/>
<path d="M313.805 63.3133H304.54C304.295 63.3133 304.06 63.4108 303.887 63.5845C303.714 63.7581 303.616 63.9937 303.616 64.2392C303.616 64.4848 303.714 64.7204 303.887 64.894C304.06 65.0677 304.295 65.1652 304.54 65.1652H313.805C314.05 65.1652 314.285 65.0677 314.458 64.894C314.631 64.7204 314.728 64.4848 314.728 64.2392C314.728 63.9937 314.631 63.7581 314.458 63.5845C314.285 63.4108 314.05 63.3133 313.805 63.3133Z" fill="#E6E6E6"/>
<path d="M395.529 37H296.471C295.55 37.0011 294.668 37.3682 294.018 38.0207C293.367 38.6733 293.001 39.558 293 40.4809V114.519C293.001 115.442 293.367 116.327 294.018 116.979C294.668 117.632 295.55 117.999 296.471 118H395.529C396.45 117.999 397.332 117.632 397.982 116.979C398.633 116.327 398.999 115.442 399 114.519V40.4809C398.999 39.558 398.633 38.6733 397.982 38.0207C397.332 37.3682 396.45 37.0011 395.529 37ZM398.694 114.519C398.694 114.936 398.612 115.349 398.453 115.734C398.294 116.119 398.061 116.469 397.767 116.764C397.473 117.058 397.124 117.292 396.74 117.452C396.357 117.611 395.945 117.693 395.529 117.693H296.471C295.631 117.693 294.826 117.359 294.233 116.764C293.639 116.168 293.306 115.361 293.306 114.519V61.1889C293.306 54.8549 295.815 48.7805 300.28 44.3017C304.746 39.823 310.802 37.3068 317.118 37.3068H395.529C395.945 37.3068 396.357 37.3889 396.74 37.5484C397.124 37.7079 397.473 37.9417 397.767 38.2365C398.061 38.5312 398.294 38.8811 398.453 39.2662C398.612 39.6513 398.694 40.064 398.694 40.4809V114.519Z" fill="#E6E6E6"/>
<path d="M389.347 50.3878H302.661C302.62 50.3878 302.581 50.3716 302.553 50.3429C302.524 50.3141 302.508 50.2751 302.508 50.2344C302.508 50.1937 302.524 50.1547 302.553 50.1259C302.581 50.0971 302.62 50.081 302.661 50.081H389.347C389.387 50.081 389.426 50.0971 389.455 50.1259C389.484 50.1547 389.5 50.1937 389.5 50.2344C389.5 50.2751 389.484 50.3141 389.455 50.3429C389.426 50.3716 389.387 50.3878 389.347 50.3878Z" fill="#E6E6E6"/>
<path d="M306.998 45.7824C307.712 45.7824 308.291 45.1886 308.291 44.4561C308.291 43.7237 307.712 43.1299 306.998 43.1299C306.284 43.1299 305.704 43.7237 305.704 44.4561C305.704 45.1886 306.284 45.7824 306.998 45.7824Z" fill="#E6E6E6"/>
<path d="M311.466 45.7824C312.181 45.7824 312.76 45.1886 312.76 44.4561C312.76 43.7237 312.181 43.1299 311.466 43.1299C310.752 43.1299 310.173 43.7237 310.173 44.4561C310.173 45.1886 310.752 45.7824 311.466 45.7824Z" fill="#E6E6E6"/>
<path d="M315.935 45.7824C316.649 45.7824 317.228 45.1886 317.228 44.4561C317.228 43.7237 316.649 43.1299 315.935 43.1299C315.221 43.1299 314.641 43.7237 314.641 44.4561C314.641 45.1886 315.221 45.7824 315.935 45.7824Z" fill="#E6E6E6"/>
<path d="M321.03 45.5043C321.01 45.5044 320.99 45.5003 320.971 45.4924C320.952 45.4845 320.935 45.4728 320.921 45.4582L320.048 44.5634C320.02 44.5347 320.004 44.4962 320.004 44.4561C320.004 44.416 320.02 44.3775 320.048 44.3488L320.921 43.4541C320.935 43.4394 320.952 43.4277 320.97 43.4196C320.989 43.4115 321.009 43.4072 321.029 43.4069C321.049 43.4066 321.069 43.4103 321.088 43.4178C321.107 43.4253 321.124 43.4364 321.138 43.4506C321.153 43.4648 321.164 43.4817 321.172 43.5003C321.18 43.519 321.184 43.5391 321.184 43.5593C321.184 43.5796 321.18 43.5997 321.173 43.6184C321.165 43.6372 321.154 43.6543 321.14 43.6686L320.371 44.4561L321.14 45.2437C321.161 45.2653 321.175 45.2926 321.18 45.3223C321.186 45.3519 321.183 45.3826 321.171 45.4104C321.159 45.4383 321.14 45.462 321.115 45.4787C321.09 45.4954 321.06 45.5043 321.03 45.5043Z" fill="#E6E6E6"/>
<path d="M322.497 45.5043C322.467 45.5043 322.437 45.4954 322.412 45.4787C322.387 45.462 322.367 45.4383 322.356 45.4104C322.344 45.3826 322.341 45.3519 322.347 45.3223C322.352 45.2926 322.366 45.2653 322.387 45.2437L323.156 44.4561L322.387 43.6686C322.36 43.6394 322.344 43.6004 322.345 43.56C322.346 43.5195 322.362 43.481 322.391 43.4527C322.42 43.4245 322.458 43.4087 322.499 43.409C322.539 43.4092 322.578 43.4254 322.606 43.4541L323.479 44.3488C323.507 44.3775 323.522 44.416 323.522 44.4561C323.522 44.4962 323.507 44.5347 323.479 44.5634L322.606 45.4582C322.592 45.4728 322.575 45.4844 322.556 45.4924C322.537 45.5003 322.517 45.5044 322.497 45.5043Z" fill="#E6E6E6"/>
<path d="M381.617 43.2834H379.994C379.95 43.2834 379.906 43.2921 379.866 43.309C379.825 43.3259 379.788 43.3506 379.757 43.3818C379.726 43.413 379.701 43.4501 379.684 43.4908C379.667 43.5316 379.659 43.5753 379.659 43.6194V45.2486C379.659 45.2927 379.667 45.3364 379.684 45.3772C379.701 45.418 379.726 45.455 379.757 45.4862C379.788 45.5174 379.825 45.5422 379.866 45.559C379.906 45.5759 379.95 45.5846 379.994 45.5846H381.617C381.706 45.5847 381.791 45.5493 381.854 45.4864C381.917 45.4234 381.953 45.3379 381.953 45.2486V43.6194C381.953 43.5301 381.917 43.4446 381.854 43.3817C381.791 43.3187 381.706 43.2834 381.617 43.2834Z" fill="#E6E6E6"/>
<path d="M377.64 43.2834H376.017C375.973 43.2834 375.929 43.2921 375.889 43.309C375.848 43.3259 375.811 43.3506 375.78 43.3818C375.749 43.413 375.724 43.4501 375.707 43.4908C375.69 43.5316 375.682 43.5753 375.682 43.6194V45.2486C375.682 45.2927 375.69 45.3364 375.707 45.3772C375.724 45.418 375.749 45.455 375.78 45.4862C375.811 45.5174 375.848 45.5422 375.889 45.559C375.929 45.5759 375.973 45.5846 376.017 45.5846H377.64C377.729 45.5847 377.814 45.5493 377.877 45.4864C377.94 45.4234 377.976 45.3379 377.976 45.2486V43.6194C377.976 43.5301 377.94 43.4446 377.877 43.3817C377.814 43.3187 377.729 43.2834 377.64 43.2834Z" fill="#E6E6E6"/>
<path d="M385.364 43.3602H383.741C383.697 43.3602 383.654 43.3688 383.613 43.3857C383.572 43.4026 383.535 43.4273 383.504 43.4585C383.473 43.4897 383.449 43.5268 383.432 43.5676C383.415 43.6083 383.406 43.652 383.406 43.6961V45.3253C383.406 45.3695 383.415 45.4132 383.432 45.4539C383.449 45.4947 383.473 45.5317 383.504 45.5629C383.535 45.5941 383.572 45.6189 383.613 45.6358C383.654 45.6526 383.697 45.6613 383.741 45.6613H385.364C385.453 45.6614 385.539 45.6261 385.602 45.5631C385.665 45.5001 385.7 45.4146 385.701 45.3253V43.6961C385.7 43.6069 385.665 43.5214 385.602 43.4584C385.539 43.3954 385.453 43.3601 385.364 43.3602Z" fill="#E6E6E6"/>
<path d="M352.49 43.9799H339.518C339.409 43.9799 339.305 44.0231 339.229 44.0999C339.152 44.1767 339.109 44.2809 339.109 44.3895C339.109 44.4982 339.152 44.6023 339.229 44.6792C339.305 44.756 339.409 44.7991 339.518 44.7991H352.49C352.598 44.7991 352.702 44.756 352.779 44.6792C352.855 44.6023 352.898 44.4982 352.898 44.3895C352.898 44.2809 352.855 44.1767 352.779 44.0999C352.702 44.0231 352.598 43.9799 352.49 43.9799Z" fill="#E6E6E6"/>
<path d="M317.719 99.9662L309.962 99.7203C308.886 99.6861 307.676 99.6879 306.908 100.246C306.037 100.879 306.169 102 306.892 102.727C307.616 103.455 308.77 103.87 309.904 104.208C315.925 106.003 322.588 106.367 329.058 105.961C335.529 105.555 341.866 104.407 348.171 103.263C348.769 103.154 349.447 102.998 349.691 102.58C349.927 102.177 349.618 101.69 349.139 101.429C348.659 101.168 348.051 101.08 347.465 101.002C336.842 99.602 326.105 99.2948 315.42 100.085" fill="#6C63FF"/>
<path d="M331.657 93.9823V92.1414C330.325 92.1603 325.559 92.1277 324.315 92.1414C324.223 98.5755 323.655 97.3151 328.911 97.3402C329.153 97.3411 329.384 97.4379 329.555 97.6094C329.725 97.781 329.821 98.0133 329.822 98.2555V98.2832C329.822 98.5258 329.726 98.7586 329.554 98.9302C329.383 99.1018 329.151 99.1982 328.909 99.1982H324.315V101.039H331.657C331.667 101.033 331.65 99.2615 331.657 99.1982C331.968 93.8649 331.353 95.7831 326.89 95.5692C326.69 95.5589 326.502 95.4721 326.365 95.3266C326.227 95.1812 326.15 94.9882 326.151 94.7876V94.7646C326.151 94.5571 326.233 94.3581 326.379 94.2114C326.525 94.0647 326.724 93.9823 326.931 93.9823H331.657Z" fill="#3F3D56"/>
<path d="M340.682 93.9823V92.1414C339.35 92.1603 334.583 92.1277 333.34 92.1414C333.246 98.6314 332.67 97.2927 338.074 97.3411C338.28 97.3432 338.476 97.4266 338.62 97.5731C338.765 97.7196 338.846 97.9174 338.846 98.1235C338.846 98.2201 338.846 98.3191 338.846 98.4161C338.846 98.5188 338.826 98.6205 338.787 98.7154C338.748 98.8103 338.69 98.8965 338.618 98.9692C338.545 99.0418 338.459 99.0994 338.365 99.1387C338.27 99.178 338.169 99.1982 338.066 99.1982H333.34V101.039H340.682C340.692 101.033 340.674 99.2615 340.682 99.1982C340.992 93.8649 340.378 95.7831 335.915 95.5692C335.715 95.5589 335.527 95.4721 335.389 95.3266C335.251 95.1812 335.175 94.9882 335.175 94.7876V94.7646C335.175 94.5571 335.257 94.3581 335.404 94.2114C335.55 94.0647 335.748 93.9823 335.955 93.9823H340.682Z" fill="#3F3D56"/>
<path d="M322.174 93.9823V92.1414H314.832C314.827 93.7833 314.835 98.1292 314.832 99.8118C313.393 102.255 321.568 100.564 322.174 101.04C322.174 101.039 322.174 99.1982 322.174 99.1982C316.588 99.1689 316.447 100.218 316.627 95.1436C316.638 94.832 316.769 94.5368 316.992 94.3202C317.216 94.1036 317.514 93.9824 317.825 93.9822C319.44 93.9823 322.174 93.9823 322.174 93.9823Z" fill="#3F3D56"/>
<path d="M336.686 77.9775L328.928 77.7725C327.852 77.744 326.643 77.7455 325.875 78.2103C325.004 78.738 325.136 79.6727 325.859 80.279C326.582 80.8853 327.737 81.2316 328.87 81.5133C334.891 83.0095 341.555 83.3132 348.025 82.9746C354.495 82.6361 360.832 81.679 367.138 80.7252C367.736 80.6348 368.414 80.5046 368.658 80.1566C368.894 79.82 368.585 79.4141 368.106 79.1965C367.626 78.979 367.018 78.9057 366.432 78.8409C355.791 77.6735 345.071 77.4178 334.387 78.0767" fill="#6C63FF"/>
<path d="M335.328 69.897C335.203 72.7392 336.245 73.6337 332.651 73.2717C332.408 71.5762 333.64 69.2233 330.816 69.8207C331.382 71.0506 329.24 80.382 332.651 78.7176C332.842 75.914 331.58 74.6844 335.328 75.1133C335.629 76.8464 334.226 79.3967 337.163 78.7945C336.598 77.564 338.739 68.2335 335.328 69.897Z" fill="#3F3D56"/>
<path d="M354.142 69.897C354.394 70.053 351.834 72.7694 351.778 72.992C351.702 72.8021 349.258 70.1444 349.553 69.8971C346.153 68.2119 348.272 77.5975 347.717 78.7952C347.718 78.7948 349.553 78.7948 349.553 78.7948V72.9655C352.133 76.4555 351.654 75.8682 354.142 72.7941L354.142 78.7948C357.542 80.4805 355.423 71.0938 355.978 69.8966C355.977 69.897 354.142 69.897 354.142 69.897Z" fill="#3F3D56"/>
<path d="M346.035 69.897H338.693C338.262 72.4777 339.688 71.6122 341.447 71.7379L341.446 78.7948H343.282V71.7379C345.032 71.6186 346.472 72.4663 346.035 69.897Z" fill="#3F3D56"/>
<path d="M359.343 76.9539C358.919 74.6208 358.919 72.2301 359.343 69.897H357.507C357.518 71.0634 357.504 75.7699 357.505 77.9221C357.505 78.1544 357.597 78.3772 357.76 78.5416C357.924 78.7059 358.146 78.7983 358.378 78.7985C360.227 78.801 363.757 78.7873 364.849 78.7948L364.849 76.9539H359.343Z" fill="#3F3D56"/>
<path d="M312.453 77.2607H304.993C304.628 77.2607 304.278 77.4061 304.02 77.6651C303.761 77.924 303.616 78.2752 303.616 78.6414C303.616 79.0075 303.761 79.3587 304.02 79.6177C304.278 79.8766 304.628 80.022 304.993 80.022H312.453C312.819 80.022 313.169 79.8766 313.427 79.6177C313.685 79.3587 313.83 79.0075 313.83 78.6414C313.83 78.2752 313.685 77.924 313.427 77.6651C313.169 77.4061 312.818 77.2607 312.453 77.2607Z" fill="#E6E6E6"/>
<path d="M380.093 116.4L378.579 116.399L377.858 110.541L380.093 110.541L380.093 116.4Z" fill="#FFB6B6"/>
<path d="M380.146 117.984L375.489 117.984V117.925C375.489 117.443 375.68 116.98 376.02 116.639C376.36 116.298 376.821 116.107 377.302 116.107L378.153 115.46L379.74 116.107L380.147 116.107L380.146 117.984Z" fill="#2F2E41"/>
<path d="M385.447 116.4L383.932 116.399L383.212 110.541L385.447 110.541L385.447 116.4Z" fill="#FFB6B6"/>
<path d="M385.5 117.984L380.843 117.984V117.925C380.843 117.443 381.034 116.98 381.374 116.639C381.714 116.298 382.175 116.107 382.656 116.107L383.506 115.46L385.094 116.107L385.5 116.107L385.5 117.984Z" fill="#2F2E41"/>
<path d="M376.322 84.4771C376.322 84.4771 374.865 88.9655 375.134 89.5563C375.403 90.1471 375.862 89.6868 375.403 90.1471C374.944 90.6073 374.544 90.1181 374.973 90.8996C375.403 91.6811 376.054 98.1151 376.34 98.4265C376.627 98.738 377.02 98.7463 376.671 99.049C376.321 99.3516 375.862 98.738 376.321 99.3516C376.78 99.9652 377.997 114.121 377.997 114.121H380.376C380.376 114.121 380.969 113.436 380.633 112.991C380.298 112.545 380.663 112.373 380.633 112.075C380.604 111.778 380.715 111.136 380.736 110.843C380.757 110.55 381.159 103.575 380.193 99.5457L381.954 91.8734L382.835 101.146C382.835 101.146 381.853 108.925 382.835 111.425C382.835 111.425 382.043 112.086 382.394 112.469C382.745 112.852 383.051 112.545 382.745 112.852C382.439 113.158 383.204 114.232 383.204 114.232L385.804 114.079L387.276 99.5457C387.276 99.5457 387.524 98.0301 387.276 97.7704C387.028 97.5107 387.028 98.4311 387.028 97.5107V96.2834C387.028 96.2834 388.137 88.735 388.118 88.2904C388.099 87.8459 386.263 84.6243 386.263 84.6243L376.322 84.4771Z" fill="#2F2E41"/>
<path d="M384.013 66.3237L380.216 66.0618L379.08 67.8586L376.344 68.9743V77.8252C376.628 78.6821 376.776 79.579 376.78 80.4823C376.769 82.2456 376.317 84.3228 376.474 84.7777C378.003 89.2266 386.416 84.7777 386.416 84.7777L386.263 80.0221L386.471 69.2743L384.752 67.8992L384.013 66.3237Z" fill="#E6E6E6"/>
<path d="M376.168 86.3984L375.907 83.6001L374.292 83.527L374.674 86.4757C374.576 86.6206 374.52 86.79 374.513 86.9649C374.506 87.1398 374.547 87.3132 374.633 87.4657C374.719 87.6182 374.845 87.7437 374.998 87.828C375.151 87.9124 375.324 87.9523 375.498 87.9433C375.673 87.9343 375.841 87.8767 375.984 87.777C376.128 87.6773 376.241 87.5395 376.31 87.3789C376.38 87.2184 376.404 87.0416 376.378 86.8684C376.353 86.6952 376.281 86.5324 376.168 86.3984Z" fill="#FFB6B6"/>
<path d="M376.963 68.7383L376.918 68.7458C376.502 68.8166 376.109 68.9881 375.774 69.2455C375.438 69.5029 375.17 69.8384 374.993 70.2229C374.531 71.2259 373.029 77.8193 373.688 78.8135C374.198 79.5847 374.074 79.4343 373.834 80.016C373.594 80.5977 373.208 79.9769 373.524 80.9002C373.841 81.8234 374.189 81.6917 373.895 82.0484C373.601 82.4051 373.3 82.3352 373.585 82.9326C373.871 83.53 373.825 83.7316 373.879 83.9566C373.933 84.1816 373.886 85.764 373.886 85.764C373.886 85.764 375.611 85.6328 376.469 86.0443C376.469 86.0443 375.99 84.4461 376.261 84.1902C376.532 83.9343 376.857 83.9034 376.625 83.531C376.393 83.1586 375.867 83.1429 376.439 82.9569C377.012 82.7709 376.827 79.4353 376.827 79.4353C377.77 76.9592 377.398 72.8865 376.963 68.7383Z" fill="#E6E6E6"/>
<path d="M387.363 86.5982L387.484 83.7901L389.093 83.6354L388.86 86.5997C388.965 86.7395 389.029 86.9059 389.045 87.0802C389.061 87.2545 389.028 87.4298 388.951 87.5864C388.873 87.743 388.753 87.8747 388.604 87.9667C388.456 88.0587 388.285 88.1074 388.11 88.1072C387.936 88.107 387.765 88.058 387.616 87.9657C387.468 87.8734 387.348 87.7414 387.271 87.5846C387.193 87.4278 387.161 87.2524 387.177 87.0782C387.193 86.9039 387.258 86.7377 387.363 86.5982Z" fill="#FFB6B6"/>
<path d="M385.681 69.0007L385.726 69.006C386.146 69.0556 386.547 69.207 386.895 69.4471C387.243 69.6872 387.527 70.0087 387.723 70.3838C388.235 71.3621 389.856 77.9881 389.459 78.8974C389.089 79.7454 389.105 79.5369 389.374 80.1057C389.642 80.6745 389.997 80.035 389.727 80.9731C389.457 81.9112 389.103 81.7972 389.415 82.1386C389.726 82.48 390.024 82.3949 389.769 83.006C389.513 83.6171 389.57 83.8162 389.527 84.0436C389.484 84.271 389.611 85.8491 389.611 85.8491C389.611 85.8491 387.882 85.8053 387.045 86.2597C387.045 86.2597 387.443 84.6393 387.16 84.3975C386.876 84.1556 386.55 84.1412 386.763 83.7575C386.976 83.3738 387.5 83.3315 386.919 83.1747C386.338 83.018 386.355 79.6772 386.355 79.6772L385.681 69.0007Z" fill="#E6E6E6"/>
<path d="M382.208 65.4992C383.843 65.4992 385.169 64.1693 385.169 62.5289C385.169 60.8884 383.843 59.5585 382.208 59.5585C380.572 59.5585 379.246 60.8884 379.246 62.5289C379.246 64.1693 380.572 65.4992 382.208 65.4992Z" fill="#FFB6B6"/>
<path d="M384.269 65.0714C384.681 64.7481 384.721 64.1319 385.072 63.7434C385.66 63.0939 385.936 62.3952 385.628 61.6256C385.356 60.9449 385.414 60.1082 384.827 59.67C385.115 59.5654 385.183 59.3483 384.929 59.3443C384.758 59.3416 384.119 59.6701 384.426 59.2608C384.734 58.8516 384.152 59.0131 384.19 58.8456C384.229 58.6781 384.475 58.5853 384.584 58.7181C384.492 58.624 384.38 58.5521 384.256 58.5081C384.133 58.464 384 58.4489 383.87 58.4639C383.739 58.4788 383.614 58.5235 383.503 58.5945C383.393 58.6654 383.3 58.7608 383.231 58.8733C382.885 58.3527 382.517 57.9944 381.987 58.3248C381.467 58.6493 381.473 59.0505 380.914 58.9541C380.65 58.9088 380.626 59.4074 380.446 59.6055C380.363 59.7107 380.255 59.7934 380.131 59.8461C380.008 59.8987 379.874 59.9197 379.741 59.907C379.478 59.8573 379.278 59.5293 379.425 59.3057L378.806 60.7207L378.557 60.4141C378.161 60.673 378.291 61.3484 378.69 61.6032C379.088 61.858 379.606 61.8035 380.066 61.6906C380.618 61.5546 381.189 61.5072 381.756 61.55C382.623 61.6728 383.226 62.712 382.905 63.5287C383.238 63.2008 383.854 63.4729 384.027 63.9079C384.199 64.3428 384.073 64.8328 383.945 65.283" fill="#2F2E41"/>
</g>
<path d="M35.1009 114V99.4545H38.6165V105.293H44.348V99.4545H47.8565V114H44.348V108.155H38.6165V114H35.1009ZM49.5859 102.31V99.4545H61.88V102.31H57.4695V114H54.0036V102.31H49.5859ZM63.5969 99.4545H67.9506L71.6438 108.46H71.8143L75.5075 99.4545H79.8612V114H76.4379V105.065H76.3171L72.8228 113.908H70.6353L67.141 105.016H67.0202V114H63.5969V99.4545ZM82.054 114V99.4545H85.5696V111.145H91.6207V114H82.054Z" fill="#FAF8F8"/>
<path d="M140.304 104.724H136.753C136.705 104.36 136.608 104.031 136.462 103.737C136.315 103.444 136.121 103.193 135.879 102.984C135.638 102.776 135.351 102.617 135.02 102.509C134.693 102.395 134.331 102.338 133.933 102.338C133.228 102.338 132.619 102.511 132.108 102.857C131.601 103.202 131.211 103.702 130.936 104.355C130.666 105.009 130.531 105.799 130.531 106.727C130.531 107.693 130.669 108.503 130.943 109.156C131.223 109.805 131.613 110.295 132.115 110.626C132.622 110.953 133.221 111.116 133.912 111.116C134.3 111.116 134.653 111.067 134.97 110.967C135.292 110.868 135.574 110.723 135.815 110.534C136.062 110.34 136.263 110.106 136.419 109.831C136.58 109.552 136.691 109.237 136.753 108.886L140.304 108.908C140.242 109.552 140.055 110.186 139.743 110.811C139.435 111.436 139.011 112.007 138.472 112.523C137.932 113.034 137.274 113.441 136.497 113.744C135.725 114.047 134.84 114.199 133.841 114.199C132.525 114.199 131.346 113.91 130.304 113.332C129.267 112.75 128.448 111.902 127.847 110.79C127.245 109.677 126.945 108.323 126.945 106.727C126.945 105.127 127.25 103.77 127.861 102.658C128.472 101.545 129.298 100.7 130.339 100.122C131.381 99.5445 132.548 99.2557 133.841 99.2557C134.722 99.2557 135.536 99.3788 136.284 99.625C137.032 99.8665 137.69 100.222 138.259 100.69C138.827 101.154 139.288 101.725 139.643 102.402C139.999 103.079 140.219 103.853 140.304 104.724ZM150.178 103.815C150.131 103.295 149.92 102.89 149.546 102.601C149.176 102.307 148.649 102.161 147.962 102.161C147.507 102.161 147.129 102.22 146.826 102.338C146.523 102.456 146.295 102.62 146.144 102.828C145.992 103.032 145.914 103.266 145.909 103.531C145.9 103.749 145.943 103.941 146.037 104.107C146.137 104.272 146.279 104.419 146.463 104.547C146.653 104.67 146.88 104.779 147.145 104.874C147.41 104.968 147.709 105.051 148.04 105.122L149.29 105.406C150.01 105.562 150.644 105.771 151.194 106.031C151.748 106.292 152.212 106.602 152.586 106.962C152.964 107.321 153.251 107.736 153.445 108.205C153.639 108.673 153.739 109.199 153.743 109.781C153.739 110.7 153.507 111.488 153.047 112.146C152.588 112.804 151.927 113.309 151.066 113.659C150.209 114.009 149.174 114.185 147.962 114.185C146.745 114.185 145.685 114.002 144.78 113.638C143.876 113.273 143.173 112.719 142.671 111.976C142.169 111.232 141.911 110.293 141.897 109.156H145.263C145.292 109.625 145.417 110.016 145.64 110.328C145.862 110.641 146.167 110.877 146.556 111.038C146.949 111.199 147.403 111.28 147.919 111.28C148.393 111.28 148.795 111.216 149.127 111.088C149.463 110.96 149.721 110.783 149.901 110.555C150.081 110.328 150.173 110.068 150.178 109.774C150.173 109.5 150.088 109.265 149.922 109.071C149.757 108.872 149.501 108.702 149.155 108.56C148.814 108.413 148.379 108.278 147.848 108.155L146.328 107.8C145.069 107.511 144.077 107.045 143.353 106.401C142.628 105.752 142.268 104.876 142.273 103.773C142.268 102.873 142.51 102.085 142.998 101.408C143.485 100.731 144.16 100.203 145.022 99.8239C145.883 99.4451 146.866 99.2557 147.969 99.2557C149.096 99.2557 150.074 99.4474 150.902 99.831C151.736 100.21 152.382 100.742 152.841 101.429C153.301 102.116 153.535 102.911 153.544 103.815H150.178ZM163.381 103.815C163.334 103.295 163.123 102.89 162.749 102.601C162.38 102.307 161.852 102.161 161.165 102.161C160.711 102.161 160.332 102.22 160.029 102.338C159.726 102.456 159.498 102.62 159.347 102.828C159.195 103.032 159.117 103.266 159.113 103.531C159.103 103.749 159.146 103.941 159.24 104.107C159.34 104.272 159.482 104.419 159.667 104.547C159.856 104.67 160.083 104.779 160.348 104.874C160.614 104.968 160.912 105.051 161.243 105.122L162.493 105.406C163.213 105.562 163.847 105.771 164.397 106.031C164.951 106.292 165.415 106.602 165.789 106.962C166.167 107.321 166.454 107.736 166.648 108.205C166.842 108.673 166.942 109.199 166.946 109.781C166.942 110.7 166.71 111.488 166.25 112.146C165.791 112.804 165.131 113.309 164.269 113.659C163.412 114.009 162.377 114.185 161.165 114.185C159.948 114.185 158.888 114.002 157.983 113.638C157.079 113.273 156.376 112.719 155.874 111.976C155.372 111.232 155.114 110.293 155.1 109.156H158.466C158.495 109.625 158.62 110.016 158.843 110.328C159.065 110.641 159.371 110.877 159.759 111.038C160.152 111.199 160.606 111.28 161.123 111.28C161.596 111.28 161.998 111.216 162.33 111.088C162.666 110.96 162.924 110.783 163.104 110.555C163.284 110.328 163.376 110.068 163.381 109.774C163.376 109.5 163.291 109.265 163.125 109.071C162.96 108.872 162.704 108.702 162.358 108.56C162.017 108.413 161.582 108.278 161.051 108.155L159.532 107.8C158.272 107.511 157.28 107.045 156.556 106.401C155.831 105.752 155.471 104.876 155.476 103.773C155.471 102.873 155.713 102.085 156.201 101.408C156.688 100.731 157.363 100.203 158.225 99.8239C159.087 99.4451 160.069 99.2557 161.172 99.2557C162.299 99.2557 163.277 99.4474 164.105 99.831C164.939 100.21 165.585 100.742 166.044 101.429C166.504 102.116 166.738 102.911 166.748 103.815H163.381Z" fill="#FFFBFB"/>
<path d="M34.8256 138V127.091H42.4322V129.232H37.4624V131.469H42.0433V133.616H37.4624V135.859H42.4322V138H34.8256ZM46.6882 133.334V138H44.0835V129.818H46.5604V131.32H46.6509C46.832 130.82 47.141 130.427 47.5778 130.143C48.0146 129.855 48.5348 129.712 49.1385 129.712C49.7138 129.712 50.2127 129.841 50.6353 130.1C51.0614 130.356 51.3917 130.715 51.6261 131.176C51.864 131.635 51.9812 132.171 51.9776 132.785V138H49.3729V133.297C49.3764 132.842 49.261 132.487 49.0266 132.231C48.7958 131.975 48.4744 131.848 48.0625 131.848C47.7891 131.848 47.5476 131.908 47.3381 132.029C47.1321 132.146 46.9723 132.315 46.8587 132.535C46.7486 132.755 46.6918 133.021 46.6882 133.334ZM58.2085 129.818V131.736H53.047V129.818H58.2085ZM54.1283 127.858H56.733V135.427C56.733 135.587 56.7579 135.717 56.8076 135.816C56.8609 135.912 56.9372 135.981 57.0367 136.024C57.1361 136.063 57.2551 136.082 57.3936 136.082C57.493 136.082 57.5977 136.074 57.7078 136.056C57.8215 136.034 57.9067 136.017 57.9635 136.002L58.3577 137.883C58.2334 137.918 58.0576 137.963 57.8303 138.016C57.6066 138.069 57.3385 138.103 57.026 138.117C56.4152 138.146 55.8914 138.075 55.4546 137.904C55.0214 137.73 54.6894 137.46 54.4585 137.094C54.2313 136.729 54.1212 136.269 54.1283 135.715V127.858ZM59.5376 138V129.818H62.0677V131.31H62.153C62.3021 130.77 62.5454 130.369 62.8827 130.106C63.2201 129.839 63.6125 129.706 64.0599 129.706C64.1807 129.706 64.305 129.715 64.4328 129.733C64.5606 129.747 64.6796 129.77 64.7897 129.802V132.066C64.6654 132.023 64.502 131.99 64.2996 131.965C64.1008 131.94 63.9232 131.928 63.767 131.928C63.458 131.928 63.1792 131.997 62.9307 132.135C62.6856 132.27 62.4921 132.46 62.3501 132.705C62.2116 132.947 62.1423 133.231 62.1423 133.558V138H59.5376ZM67.6927 141.068C67.3802 141.068 67.0855 141.043 66.8085 140.994C66.5315 140.947 66.2936 140.885 66.0947 140.807L66.67 138.916C66.9257 139.001 67.1565 139.051 67.3625 139.065C67.572 139.08 67.7513 139.046 67.9005 138.964C68.0532 138.886 68.1704 138.746 68.252 138.543L68.3532 138.298L65.4449 129.818H68.1721L69.6796 135.656H69.7648L71.2936 129.818H74.0368L70.9527 138.783C70.8035 139.23 70.5922 139.625 70.3188 139.966C70.0489 140.31 69.6991 140.58 69.2694 140.775C68.8433 140.971 68.3177 141.068 67.6927 141.068ZM78.2583 138V127.091H82.7646C83.5814 127.091 84.2863 127.251 84.8794 127.57C85.4759 127.886 85.9358 128.328 86.259 128.897C86.5821 129.461 86.7437 130.118 86.7437 130.868C86.7437 131.62 86.5786 132.279 86.2483 132.844C85.9216 133.405 85.4546 133.84 84.8474 134.149C84.2401 134.458 83.5193 134.612 82.6847 134.612H79.9042V132.535H82.1947C82.5924 132.535 82.9244 132.466 83.1908 132.327C83.4607 132.189 83.6649 131.995 83.8034 131.746C83.9419 131.494 84.0111 131.201 84.0111 130.868C84.0111 130.53 83.9419 130.239 83.8034 129.994C83.6649 129.745 83.4607 129.554 83.1908 129.419C82.9209 129.284 82.5889 129.216 82.1947 129.216H80.895V138H78.2583ZM91.7015 138.154C90.8422 138.154 90.1035 137.979 89.4856 137.627C88.8713 137.272 88.3972 136.778 88.0634 136.146C87.7331 135.511 87.568 134.774 87.568 133.936C87.568 133.094 87.7331 132.357 88.0634 131.725C88.3972 131.089 88.8713 130.596 89.4856 130.244C90.1035 129.889 90.8422 129.712 91.7015 129.712C92.5609 129.712 93.2978 129.889 93.9121 130.244C94.53 130.596 95.0041 131.089 95.3343 131.725C95.6681 132.357 95.8351 133.094 95.8351 133.936C95.8351 134.774 95.6681 135.511 95.3343 136.146C95.0041 136.778 94.53 137.272 93.9121 137.627C93.2978 137.979 92.5609 138.154 91.7015 138.154ZM91.7175 136.189C92.03 136.189 92.2946 136.093 92.5112 135.901C92.7278 135.71 92.8929 135.443 93.0066 135.102C93.1238 134.761 93.1824 134.367 93.1824 133.92C93.1824 133.465 93.1238 133.067 93.0066 132.727C92.8929 132.386 92.7278 132.119 92.5112 131.928C92.2946 131.736 92.03 131.64 91.7175 131.64C91.3944 131.64 91.1209 131.736 90.8972 131.928C90.677 132.119 90.5083 132.386 90.3912 132.727C90.2775 133.067 90.2207 133.465 90.2207 133.92C90.2207 134.367 90.2775 134.761 90.3912 135.102C90.5083 135.443 90.677 135.71 90.8972 135.901C91.1209 136.093 91.3944 136.189 91.7175 136.189ZM97.1694 138V129.818H99.7741V138H97.1694ZM98.4744 128.865C98.1087 128.865 97.7944 128.744 97.5316 128.502C97.2688 128.257 97.1374 127.963 97.1374 127.618C97.1374 127.277 97.2688 126.986 97.5316 126.745C97.7944 126.5 98.1087 126.377 98.4744 126.377C98.8438 126.377 99.158 126.5 99.4173 126.745C99.68 126.986 99.8114 127.277 99.8114 127.618C99.8114 127.963 99.68 128.257 99.4173 128.502C99.158 128.744 98.8438 128.865 98.4744 128.865ZM104.037 133.334V138H101.432V129.818H103.909V131.32H104C104.181 130.82 104.49 130.427 104.926 130.143C105.363 129.855 105.883 129.712 106.487 129.712C107.062 129.712 107.561 129.841 107.984 130.1C108.41 130.356 108.74 130.715 108.975 131.176C109.213 131.635 109.33 132.171 109.326 132.785V138H106.722V133.297C106.725 132.842 106.61 132.487 106.375 132.231C106.144 131.975 105.823 131.848 105.411 131.848C105.138 131.848 104.896 131.908 104.687 132.029C104.481 132.146 104.321 132.315 104.207 132.535C104.097 132.755 104.04 133.021 104.037 133.334ZM115.557 129.818V131.736H110.396V129.818H115.557ZM111.477 127.858H114.082V135.427C114.082 135.587 114.107 135.717 114.156 135.816C114.21 135.912 114.286 135.981 114.385 136.024C114.485 136.063 114.604 136.082 114.742 136.082C114.842 136.082 114.946 136.074 115.056 136.056C115.17 136.034 115.255 136.017 115.312 136.002L115.706 137.883C115.582 137.918 115.406 137.963 115.179 138.016C114.955 138.069 114.687 138.103 114.375 138.117C113.764 138.146 113.24 138.075 112.803 137.904C112.37 137.73 112.038 137.46 111.807 137.094C111.58 136.729 111.47 136.269 111.477 135.715V127.858ZM124.727 129.818V131.736H119.566V129.818H124.727ZM120.647 127.858H123.252V135.427C123.252 135.587 123.276 135.717 123.326 135.816C123.379 135.912 123.456 135.981 123.555 136.024C123.655 136.063 123.774 136.082 123.912 136.082C124.012 136.082 124.116 136.074 124.226 136.056C124.34 136.034 124.425 136.017 124.482 136.002L124.876 137.883C124.752 137.918 124.576 137.963 124.349 138.016C124.125 138.069 123.857 138.103 123.545 138.117C122.934 138.146 122.41 138.075 121.973 137.904C121.54 137.73 121.208 137.46 120.977 137.094C120.75 136.729 120.64 136.269 120.647 135.715V127.858ZM129.787 138.154C128.928 138.154 128.189 137.979 127.572 137.627C126.957 137.272 126.483 136.778 126.149 136.146C125.819 135.511 125.654 134.774 125.654 133.936C125.654 133.094 125.819 132.357 126.149 131.725C126.483 131.089 126.957 130.596 127.572 130.244C128.189 129.889 128.928 129.712 129.787 129.712C130.647 129.712 131.384 129.889 131.998 130.244C132.616 130.596 133.09 131.089 133.42 131.725C133.754 132.357 133.921 133.094 133.921 133.936C133.921 134.774 133.754 135.511 133.42 136.146C133.09 136.778 132.616 137.272 131.998 137.627C131.384 137.979 130.647 138.154 129.787 138.154ZM129.803 136.189C130.116 136.189 130.381 136.093 130.597 135.901C130.814 135.71 130.979 135.443 131.093 135.102C131.21 134.761 131.268 134.367 131.268 133.92C131.268 133.465 131.21 133.067 131.093 132.727C130.979 132.386 130.814 132.119 130.597 131.928C130.381 131.736 130.116 131.64 129.803 131.64C129.48 131.64 129.207 131.736 128.983 131.928C128.763 132.119 128.594 132.386 128.477 132.727C128.363 133.067 128.307 133.465 128.307 133.92C128.307 134.367 128.363 134.761 128.477 135.102C128.594 135.443 128.763 135.71 128.983 135.901C129.207 136.093 129.48 136.189 129.803 136.189ZM37.4411 156L34.2663 145.091H37.18L38.826 152.239H38.9165L40.7969 145.091H43.1726L45.0529 152.255H45.1435L46.7947 145.091H49.7031L46.5337 156H43.9929L42.0273 149.384H41.9421L39.9766 156H37.4411ZM53.7088 156.154C52.853 156.154 52.1143 155.986 51.4929 155.648C50.875 155.308 50.3991 154.823 50.0653 154.194C49.7351 153.562 49.57 152.811 49.57 151.941C49.57 151.096 49.7369 150.357 50.0707 149.725C50.4045 149.089 50.875 148.596 51.4822 148.244C52.0895 147.889 52.805 147.712 53.6289 147.712C54.2113 147.712 54.744 147.802 55.2269 147.983C55.7099 148.164 56.1271 148.433 56.4787 148.788C56.8303 149.143 57.1037 149.581 57.299 150.103C57.4943 150.622 57.592 151.217 57.592 151.888V152.538H50.4808V151.025H55.1683C55.1648 150.748 55.0991 150.501 54.9712 150.284C54.8434 150.068 54.6676 149.899 54.4439 149.778C54.2237 149.654 53.9698 149.592 53.6822 149.592C53.391 149.592 53.13 149.658 52.8991 149.789C52.6683 149.917 52.4854 150.093 52.3505 150.316C52.2156 150.537 52.1445 150.787 52.1374 151.067V152.607C52.1374 152.941 52.2031 153.234 52.3345 153.486C52.4659 153.734 52.6523 153.928 52.8938 154.066C53.1353 154.205 53.4229 154.274 53.7567 154.274C53.9876 154.274 54.1971 154.242 54.3853 154.178C54.5735 154.114 54.7351 154.02 54.87 153.896C55.005 153.772 55.1062 153.619 55.1737 153.438L57.5653 153.507C57.4659 154.043 57.2475 154.51 56.9102 154.908C56.5763 155.302 56.1378 155.609 55.5945 155.83C55.0511 156.046 54.4226 156.154 53.7088 156.154ZM58.9223 156V145.091H61.5271V149.219H61.5803C61.6869 148.971 61.8378 148.731 62.0331 148.5C62.232 148.269 62.4841 148.081 62.7895 147.935C63.0985 147.786 63.4678 147.712 63.8975 147.712C64.4656 147.712 64.9965 147.861 65.4901 148.159C65.9873 148.457 66.3886 148.917 66.694 149.539C66.9994 150.16 67.1521 150.952 67.1521 151.914C67.1521 152.841 67.0047 153.617 66.71 154.242C66.4188 154.867 66.0246 155.336 65.5274 155.648C65.0338 155.961 64.4852 156.117 63.8815 156.117C63.4695 156.117 63.1127 156.05 62.8108 155.915C62.509 155.78 62.2551 155.602 62.0491 155.382C61.8467 155.162 61.6904 154.926 61.5803 154.674H61.5004V156H58.9223ZM61.4738 151.909C61.4738 152.349 61.5324 152.733 61.6496 153.06C61.7703 153.386 61.9426 153.64 62.1663 153.821C62.3936 153.999 62.6652 154.088 62.9813 154.088C63.3009 154.088 63.5725 153.999 63.7963 153.821C64.02 153.64 64.1887 153.386 64.3023 153.06C64.4195 152.733 64.4781 152.349 64.4781 151.909C64.4781 151.469 64.4195 151.087 64.3023 150.764C64.1887 150.441 64.02 150.19 63.7963 150.013C63.5761 149.835 63.3044 149.746 62.9813 149.746C62.6617 149.746 62.39 149.833 62.1663 150.007C61.9426 150.181 61.7703 150.43 61.6496 150.753C61.5324 151.076 61.4738 151.462 61.4738 151.909ZM75.772 156H71.7397V145.091H75.7667C76.8782 145.091 77.8352 145.309 78.6378 145.746C79.4439 146.179 80.0653 146.804 80.5021 147.621C80.9389 148.434 81.1573 149.407 81.1573 150.54C81.1573 151.676 80.9389 152.653 80.5021 153.47C80.0689 154.287 79.4492 154.913 78.6431 155.35C77.837 155.783 76.88 156 75.772 156ZM74.3764 153.752H75.6708C76.2816 153.752 76.7983 153.649 77.2209 153.443C77.647 153.234 77.9684 152.895 78.185 152.426C78.4052 151.953 78.5153 151.325 78.5153 150.54C78.5153 149.755 78.4052 149.13 78.185 148.665C77.9648 148.196 77.6399 147.859 77.2102 147.653C76.7841 147.444 76.2585 147.339 75.6335 147.339H74.3764V153.752ZM86.5213 156.154C85.6655 156.154 84.9268 155.986 84.3054 155.648C83.6875 155.308 83.2116 154.823 82.8778 154.194C82.5476 153.562 82.3825 152.811 82.3825 151.941C82.3825 151.096 82.5494 150.357 82.8832 149.725C83.217 149.089 83.6875 148.596 84.2947 148.244C84.902 147.889 85.6175 147.712 86.4414 147.712C87.0238 147.712 87.5565 147.802 88.0394 147.983C88.5224 148.164 88.9396 148.433 89.2912 148.788C89.6428 149.143 89.9162 149.581 90.1115 150.103C90.3068 150.622 90.4045 151.217 90.4045 151.888V152.538H83.2933V151.025H87.9808C87.9773 150.748 87.9116 150.501 87.7837 150.284C87.6559 150.068 87.4801 149.899 87.2564 149.778C87.0362 149.654 86.7823 149.592 86.4947 149.592C86.2035 149.592 85.9425 149.658 85.7116 149.789C85.4808 149.917 85.2979 150.093 85.163 150.316C85.0281 150.537 84.957 150.787 84.9499 151.067V152.607C84.9499 152.941 85.0156 153.234 85.147 153.486C85.2784 153.734 85.4648 153.928 85.7063 154.066C85.9478 154.205 86.2354 154.274 86.5692 154.274C86.8001 154.274 87.0096 154.242 87.1978 154.178C87.386 154.114 87.5476 154.02 87.6825 153.896C87.8175 153.772 87.9187 153.619 87.9862 153.438L90.3778 153.507C90.2784 154.043 90.06 154.51 89.7227 154.908C89.3888 155.302 88.9503 155.609 88.407 155.83C87.8636 156.046 87.2351 156.154 86.5213 156.154ZM99.4519 147.818L96.6447 156H93.6618L90.8599 147.818H93.6032L95.1106 153.454H95.1958L96.7086 147.818H99.4519ZM104.012 156.154C103.156 156.154 102.417 155.986 101.796 155.648C101.178 155.308 100.702 154.823 100.368 154.194C100.038 153.562 99.8727 152.811 99.8727 151.941C99.8727 151.096 100.04 150.357 100.373 149.725C100.707 149.089 101.178 148.596 101.785 148.244C102.392 147.889 103.108 147.712 103.932 147.712C104.514 147.712 105.047 147.802 105.53 147.983C106.013 148.164 106.43 148.433 106.781 148.788C107.133 149.143 107.406 149.581 107.602 150.103C107.797 150.622 107.895 151.217 107.895 151.888V152.538H100.784V151.025H105.471C105.468 150.748 105.402 150.501 105.274 150.284C105.146 150.068 104.97 149.899 104.747 149.778C104.526 149.654 104.273 149.592 103.985 149.592C103.694 149.592 103.433 149.658 103.202 149.789C102.971 149.917 102.788 150.093 102.653 150.316C102.518 150.537 102.447 150.787 102.44 151.067V152.607C102.44 152.941 102.506 153.234 102.637 153.486C102.769 153.734 102.955 153.928 103.197 154.066C103.438 154.205 103.726 154.274 104.059 154.274C104.29 154.274 104.5 154.242 104.688 154.178C104.876 154.114 105.038 154.02 105.173 153.896C105.308 153.772 105.409 153.619 105.476 153.438L107.868 153.507C107.769 154.043 107.55 154.51 107.213 154.908C106.879 155.302 106.441 155.609 105.897 155.83C105.354 156.046 104.725 156.154 104.012 156.154ZM111.83 145.091V156H109.225V145.091H111.83ZM117.307 156.154C116.448 156.154 115.709 155.979 115.091 155.627C114.477 155.272 114.003 154.778 113.669 154.146C113.339 153.511 113.173 152.774 113.173 151.936C113.173 151.094 113.339 150.357 113.669 149.725C114.003 149.089 114.477 148.596 115.091 148.244C115.709 147.889 116.448 147.712 117.307 147.712C118.166 147.712 118.903 147.889 119.518 148.244C120.135 148.596 120.61 149.089 120.94 149.725C121.274 150.357 121.441 151.094 121.441 151.936C121.441 152.774 121.274 153.511 120.94 154.146C120.61 154.778 120.135 155.272 119.518 155.627C118.903 155.979 118.166 156.154 117.307 156.154ZM117.323 154.189C117.635 154.189 117.9 154.093 118.117 153.901C118.333 153.71 118.498 153.443 118.612 153.102C118.729 152.761 118.788 152.367 118.788 151.92C118.788 151.465 118.729 151.067 118.612 150.727C118.498 150.386 118.333 150.119 118.117 149.928C117.9 149.736 117.635 149.64 117.323 149.64C117 149.64 116.726 149.736 116.503 149.928C116.282 150.119 116.114 150.386 115.997 150.727C115.883 151.067 115.826 151.465 115.826 151.92C115.826 152.367 115.883 152.761 115.997 153.102C116.114 153.443 116.282 153.71 116.503 153.901C116.726 154.093 117 154.189 117.323 154.189ZM122.775 159.068V147.818H125.353V149.219H125.433C125.539 148.971 125.69 148.731 125.886 148.5C126.085 148.269 126.337 148.081 126.642 147.935C126.951 147.786 127.32 147.712 127.75 147.712C128.318 147.712 128.849 147.861 129.343 148.159C129.84 148.457 130.241 148.917 130.547 149.539C130.852 150.16 131.005 150.952 131.005 151.914C131.005 152.841 130.857 153.617 130.562 154.242C130.271 154.867 129.877 155.336 129.38 155.648C128.886 155.961 128.338 156.117 127.734 156.117C127.322 156.117 126.965 156.05 126.663 155.915C126.362 155.78 126.108 155.602 125.902 155.382C125.699 155.162 125.543 154.926 125.433 154.674H125.38V159.068H122.775ZM125.326 151.909C125.326 152.349 125.385 152.733 125.502 153.06C125.623 153.386 125.795 153.64 126.019 153.821C126.246 153.999 126.518 154.088 126.834 154.088C127.153 154.088 127.425 153.999 127.649 153.821C127.873 153.64 128.041 153.386 128.155 153.06C128.272 152.733 128.331 152.349 128.331 151.909C128.331 151.469 128.272 151.087 128.155 150.764C128.041 150.441 127.873 150.19 127.649 150.013C127.429 149.835 127.157 149.746 126.834 149.746C126.514 149.746 126.243 149.833 126.019 150.007C125.795 150.181 125.623 150.43 125.502 150.753C125.385 151.076 125.326 151.462 125.326 151.909ZM132.37 156V147.818H134.847V149.32H134.937C135.108 148.823 135.395 148.431 135.8 148.143C136.205 147.855 136.688 147.712 137.249 147.712C137.817 147.712 138.304 147.857 138.708 148.148C139.113 148.44 139.371 148.83 139.481 149.32H139.566C139.719 148.834 140.017 148.445 140.461 148.154C140.905 147.859 141.429 147.712 142.032 147.712C142.806 147.712 143.435 147.96 143.918 148.457C144.401 148.951 144.642 149.629 144.642 150.492V156H142.038V151.089C142.038 150.68 141.933 150.37 141.723 150.157C141.514 149.94 141.242 149.832 140.908 149.832C140.55 149.832 140.267 149.949 140.061 150.183C139.859 150.414 139.758 150.725 139.758 151.115V156H137.254V151.062C137.254 150.682 137.151 150.382 136.945 150.162C136.739 149.942 136.468 149.832 136.13 149.832C135.903 149.832 135.702 149.887 135.528 149.997C135.354 150.103 135.218 150.256 135.118 150.455C135.022 150.654 134.974 150.888 134.974 151.158V156H132.37ZM150.081 156.154C149.225 156.154 148.486 155.986 147.865 155.648C147.247 155.308 146.771 154.823 146.437 154.194C146.107 153.562 145.942 152.811 145.942 151.941C145.942 151.096 146.109 150.357 146.443 149.725C146.777 149.089 147.247 148.596 147.854 148.244C148.462 147.889 149.177 147.712 150.001 147.712C150.583 147.712 151.116 147.802 151.599 147.983C152.082 148.164 152.499 148.433 152.851 148.788C153.202 149.143 153.476 149.581 153.671 150.103C153.866 150.622 153.964 151.217 153.964 151.888V152.538H146.853V151.025H151.54C151.537 150.748 151.471 150.501 151.343 150.284C151.215 150.068 151.04 149.899 150.816 149.778C150.596 149.654 150.342 149.592 150.054 149.592C149.763 149.592 149.502 149.658 149.271 149.789C149.04 149.917 148.858 150.093 148.723 150.316C148.588 150.537 148.517 150.787 148.509 151.067V152.607C148.509 152.941 148.575 153.234 148.707 153.486C148.838 153.734 149.024 153.928 149.266 154.066C149.507 154.205 149.795 154.274 150.129 154.274C150.36 154.274 150.569 154.242 150.757 154.178C150.946 154.114 151.107 154.02 151.242 153.896C151.377 153.772 151.478 153.619 151.546 153.438L153.937 153.507C153.838 154.043 153.62 154.51 153.282 154.908C152.948 155.302 152.51 155.609 151.967 155.83C151.423 156.046 150.795 156.154 150.081 156.154ZM157.899 151.334V156H155.294V147.818H157.771V149.32H157.862C158.043 148.82 158.352 148.427 158.789 148.143C159.225 147.855 159.746 147.712 160.349 147.712C160.925 147.712 161.424 147.841 161.846 148.1C162.272 148.356 162.603 148.715 162.837 149.176C163.075 149.635 163.192 150.171 163.189 150.785V156H160.584V151.297C160.587 150.842 160.472 150.487 160.238 150.231C160.007 149.975 159.685 149.848 159.273 149.848C159 149.848 158.759 149.908 158.549 150.029C158.343 150.146 158.183 150.315 158.07 150.535C157.96 150.755 157.903 151.021 157.899 151.334ZM169.419 147.818V149.736H164.258V147.818H169.419ZM165.339 145.858H167.944V153.427C167.944 153.587 167.969 153.717 168.019 153.816C168.072 153.912 168.148 153.981 168.248 154.024C168.347 154.063 168.466 154.082 168.604 154.082C168.704 154.082 168.809 154.074 168.919 154.056C169.032 154.034 169.118 154.017 169.174 154.002L169.569 155.883C169.444 155.918 169.269 155.963 169.041 156.016C168.818 156.069 168.549 156.103 168.237 156.117C167.626 156.146 167.102 156.075 166.666 155.904C166.232 155.73 165.9 155.46 165.669 155.094C165.442 154.729 165.332 154.269 165.339 153.715V145.858Z" fill="#F9F8F8"/>
<circle cx="150" cy="28" r="3" fill="#D9D9D9"/>
<circle cx="165" cy="28" r="3" fill="#D9D9D9"/>
<circle cx="180" cy="28" r="3" fill="#D9D9D9"/>
<circle cx="225" cy="170" r="3" fill="#D9D9D9"/>
<circle cx="246" cy="170" r="3" fill="#D9D9D9"/>
<circle cx="31" cy="170" r="3" fill="#D9D9D9"/>
<circle cx="51" cy="170" r="3" fill="#D9D9D9"/>
<circle cx="71" cy="170" r="3" fill="#D9D9D9"/>
<circle cx="267" cy="170" r="3" fill="#D9D9D9"/>
<circle cx="316" cy="28" r="3" fill="#D9D9D9"/>
<circle cx="296" cy="28" r="3" fill="#D9D9D9"/>
<circle cx="338" cy="28" r="3" fill="#D9D9D9"/>
<path d="M213.604 85.1437L206.782 76.6312L208.839 74.9822L211.578 78.3989L214.932 75.7106L212.194 72.2939L214.247 70.6483L221.069 79.1608L219.016 80.8064L216.274 77.3856L212.92 80.074L215.662 83.4948L213.604 85.1437ZM216.598 71.508L215.259 69.8371L222.454 64.0707L223.793 65.7416L221.212 67.8104L226.695 74.652L224.667 76.2776L219.184 69.436L216.598 71.508ZM223.459 63.2654L226.007 61.2233L232.392 64.7616L232.492 64.6816L230.429 57.6789L232.977 55.6368L239.8 64.1494L237.796 65.755L233.605 60.5262L233.535 60.5828L235.637 67.3966L234.357 68.4226L228.141 64.8577L228.071 64.9143L232.285 70.1723L230.281 71.7779L223.459 63.2654ZM241.083 63.1209L234.261 54.6083L236.318 52.9594L241.801 59.801L245.343 56.9628L246.682 58.6337L241.083 63.1209Z" fill="#FFFDFD"/>
<path d="M325.629 144.756L323.698 146.591C323.484 146.417 323.261 146.288 323.03 146.204C322.798 146.12 322.563 146.084 322.324 146.095C322.085 146.107 321.848 146.169 321.611 146.281C321.375 146.388 321.148 146.544 320.932 146.749C320.548 147.114 320.307 147.522 320.207 147.974C320.11 148.423 320.156 148.897 320.344 149.394C320.535 149.889 320.87 150.388 321.349 150.893C321.848 151.418 322.341 151.788 322.828 152.001C323.315 152.21 323.78 152.274 324.224 152.195C324.669 152.111 325.079 151.891 325.455 151.534C325.666 151.333 325.832 151.124 325.953 150.906C326.077 150.686 326.155 150.462 326.189 150.234C326.222 150.001 326.211 149.77 326.154 149.54C326.097 149.305 325.995 149.076 325.848 148.854L327.79 147.031C328.089 147.413 328.315 147.855 328.468 148.356C328.623 148.855 328.687 149.384 328.66 149.944C328.631 150.5 328.483 151.062 328.218 151.628C327.955 152.191 327.551 152.731 327.008 153.247C326.292 153.927 325.502 154.379 324.637 154.602C323.772 154.821 322.889 154.783 321.987 154.489C321.086 154.194 320.223 153.613 319.399 152.746C318.572 151.875 318.038 150.98 317.795 150.059C317.552 149.139 317.565 148.252 317.833 147.4C318.101 146.548 318.587 145.788 319.29 145.121C319.769 144.666 320.275 144.312 320.809 144.06C321.341 143.804 321.882 143.658 322.433 143.619C322.982 143.578 323.528 143.65 324.07 143.835C324.613 144.019 325.133 144.327 325.629 144.756ZM330.529 139.162C330.234 138.903 329.911 138.792 329.558 138.828C329.206 138.859 328.843 139.052 328.469 139.407C328.222 139.641 328.047 139.869 327.943 140.09C327.839 140.311 327.8 140.517 327.825 140.709C327.848 140.898 327.927 141.066 328.061 141.212C328.168 141.336 328.291 141.418 328.428 141.459C328.567 141.498 328.721 141.504 328.887 141.478C329.054 141.448 329.233 141.389 329.426 141.304C329.62 141.218 329.825 141.109 330.042 140.977L330.868 140.486C331.34 140.199 331.793 139.985 332.226 139.843C332.662 139.698 333.074 139.627 333.463 139.629C333.855 139.63 334.225 139.707 334.573 139.862C334.92 140.016 335.246 140.251 335.549 140.565C336.021 141.067 336.302 141.615 336.392 142.21C336.483 142.806 336.384 143.421 336.096 144.057C335.811 144.69 335.339 145.319 334.68 145.945C334.018 146.574 333.347 147.023 332.667 147.292C331.987 147.56 331.318 147.622 330.662 147.477C330.005 147.332 329.379 146.954 328.784 146.344L330.615 144.605C330.873 144.845 331.143 144.993 331.425 145.048C331.707 145.103 331.996 145.074 332.29 144.961C332.587 144.845 332.876 144.654 333.156 144.388C333.414 144.143 333.6 143.901 333.714 143.66C333.831 143.417 333.879 143.187 333.86 142.97C333.84 142.754 333.756 142.565 333.607 142.403C333.462 142.256 333.295 142.172 333.105 142.152C332.912 142.13 332.685 142.169 332.423 142.27C332.162 142.367 331.856 142.518 331.504 142.725L330.494 143.317C329.66 143.81 328.879 144.069 328.153 144.093C327.424 144.115 326.776 143.824 326.208 143.222C325.741 142.735 325.465 142.182 325.381 141.561C325.296 140.941 325.39 140.306 325.663 139.655C325.936 139.004 326.373 138.393 326.973 137.823C327.586 137.241 328.216 136.841 328.865 136.621C329.514 136.397 330.14 136.353 330.745 136.489C331.349 136.625 331.888 136.936 332.36 137.423L330.529 139.162ZM337.709 132.343C337.414 132.084 337.091 131.973 336.738 132.009C336.386 132.04 336.023 132.233 335.649 132.587C335.402 132.822 335.227 133.05 335.123 133.271C335.019 133.492 334.98 133.698 335.005 133.889C335.028 134.078 335.107 134.246 335.241 134.393C335.348 134.516 335.471 134.598 335.608 134.64C335.747 134.678 335.9 134.685 336.067 134.659C336.233 134.628 336.413 134.57 336.606 134.484C336.8 134.399 337.005 134.29 337.221 134.157L338.048 133.666C338.52 133.38 338.973 133.165 339.406 133.023C339.842 132.879 340.254 132.808 340.643 132.81C341.035 132.81 341.405 132.887 341.753 133.042C342.1 133.197 342.426 133.431 342.729 133.745C343.201 134.247 343.482 134.796 343.572 135.391C343.663 135.986 343.564 136.602 343.276 137.237C342.991 137.87 342.519 138.5 341.86 139.126C341.198 139.755 340.527 140.203 339.847 140.472C339.167 140.741 338.498 140.803 337.842 140.658C337.185 140.513 336.559 140.135 335.964 139.524L337.795 137.786C338.052 138.026 338.322 138.173 338.605 138.228C338.887 138.283 339.176 138.254 339.47 138.141C339.767 138.026 340.056 137.835 340.336 137.568C340.594 137.324 340.78 137.081 340.894 136.84C341.011 136.597 341.059 136.367 341.04 136.151C341.02 135.934 340.936 135.745 340.787 135.583C340.642 135.436 340.475 135.353 340.285 135.333C340.092 135.31 339.865 135.35 339.603 135.451C339.342 135.547 339.036 135.699 338.684 135.906L337.674 136.498C336.84 136.991 336.059 137.25 335.333 137.274C334.604 137.295 333.956 137.005 333.388 136.402C332.921 135.916 332.645 135.362 332.561 134.742C332.476 134.122 332.57 133.486 332.843 132.835C333.116 132.184 333.553 131.574 334.153 131.004C334.766 130.422 335.396 130.021 336.045 129.802C336.694 129.577 337.32 129.533 337.925 129.669C338.529 129.805 339.067 130.117 339.54 130.604L337.709 132.343Z" fill="#FFFDFD"/>
<line x1="211.646" y1="137.646" x2="241.646" y2="107.646" stroke="#4A4D60"/>
<line x1="233.646" y1="132.646" x2="263.646" y2="102.646" stroke="#4A4D60"/>
<line x1="255.646" y1="127.646" x2="285.646" y2="97.6464" stroke="#4A4D60"/>
<line x1="101.646" y1="66.6464" x2="131.646" y2="36.6464" stroke="#4A4D60"/>
<line x1="3.64645" y1="105.646" x2="33.6464" y2="75.6464" stroke="#4A4D60"/>
<line x1="60.6464" y1="84.6464" x2="90.6464" y2="54.6464" stroke="#4A4D60"/>
<line x1="218.646" y1="118.646" x2="248.646" y2="88.6464" stroke="#4A4D60"/>
<line x1="225.646" y1="99.6464" x2="255.646" y2="69.6464" stroke="#4A4D60"/>
<defs>
<clipPath id="clip0_3_114">
<rect width="106" height="81" fill="white" transform="translate(293 37)"/>
</clipPath>
</defs>
</svg>
